<svg xmlns="http://www.w3.org/2000/svg" width="24" height="26" viewBox="0 0 24 26">
    <path fill="#000" fill-rule="nonzero" d="M12 0C8.906 0 6.508 4.578 6.078 10.938c.555.59 1.207 1.175 1.93 1.746.008-.664.047-1.297.101-1.918.582-.403 1.313-.895 1.891-1.23C12.66 8 15.398 6.987 17.707 6.687a9.934 9.934 0 0 1 1.266-.086c1.297 0 2.214.312 2.554.898.305.531.168 1.375-.343 2.363.523.485 1.02.977 1.46 1.473C23.77 9.473 24 7.78 23.259 6.5c-.883-1.527-2.942-2.168-5.805-1.797-2.566.332-5.566 1.434-8.453 3.102-.184.105-.355.222-.535.336C9.184 4.44 10.645 2 12 2c.633 0 1.29.54 1.883 1.477.68-.211 1.351-.395 2.004-.532C14.852 1.09 13.507 0 12 0zM5.219 4.613C3.05 4.574 1.48 5.223.742 6.5c-.805 1.39-.469 3.258.914 5.309.125.191.262.394.434.617 1.57 2.054 4.023 4.101 6.91 5.77.184.105.375.199.562.304-1.144.395-2.253.68-3.273.813-1.95.253-3.375-.051-3.812-.813-.309-.531-.172-1.375.34-2.363a23.582 23.582 0 0 1-1.465-1.469C.23 16.528 0 18.218.742 19.5c.719 1.246 2.219 1.902 4.297 1.902.473 0 .98-.035 1.508-.105.305-.04.61-.09.922-.152l.218-.047c.016 0 .028-.004.043-.008.532-.113 1.118-.27 1.79-.48l.66-.204c.98-.336 1.984-.754 2.988-1.242.219-.727.414-1.574.562-2.55-.578.323-1.16.616-1.738.89-.668-.313-1.34-.66-1.992-1.04-2.664-1.538-4.91-3.401-6.32-5.25C2.484 9.649 2.035 8.263 2.477 7.5c.3-.523 1.097-.82 2.195-.875.156-.707.336-1.379.547-2.012zm11.523 4.285c-.789.184-1.625.454-2.48.793.566.336 1.105.696 1.629 1.055.062.727.109 1.469.109 2.254 0 5.898-1.855 10.398-3.64 10.941-.122.04-.247.059-.36.059-.633 0-1.29-.535-1.883-1.48-.68.214-1.351.398-2.004.535C9.148 24.91 10.493 26 12 26c.2 0 .39-.02.578-.059C15.707 25.348 18 19.988 18 13c0-.215-.016-.422-.02-.637.915.793 1.72 1.61 2.344 2.422 1.192 1.567 1.64 2.953 1.203 3.715-.308.527-1.093.832-2.199.887-.156.699-.332 1.375-.543 2.004.055 0 .121.011.176.011 2.078 0 3.578-.656 4.297-1.902.883-1.527.406-3.633-1.348-5.926-1.242-1.625-3.043-3.242-5.168-4.676zM12 11a1.999 1.999 0 1 0 0 4 1.999 1.999 0 1 0 0-4z"/>
</svg>
